# xmcd CD database file
#
# Track frame offsets:
#	150
#	16050
#	34872
#	47502
#	73252
#	83160
#	104960
#	119585
#	133787
#	149107
#	169242
#	195562
#
# Disc length: 2791 seconds
#
# Revision: 0
# Processed by: cddbd v1.4PL0 Copyright (c) Steve Scherf et al.
# Submitted via: CDex 1.50Beta7
#
DISCID=b70ae50c
DTITLE=Various Artist - Late Night Jazz - Disc 3
DYEAR=2000
DGENRE=Jazz
TTITLE0=Just Friends - Charlie Parker
TTITLE1=After The Rain - John Coltrane
TTITLE2=Misty - Erroll Garner
TTITLE3=Day In The Life - Wes Montgomery
TTITLE4=Midnight Samba - Stan Getz
TTITLE5=Night Train - Oscar Peterson Trio
TTITLE6=Smoke Gets in Your Eyes -  Clifford Brown
TTITLE7=As Time Goes By - Teddy Wilson
TTITLE8=My Funny Valentine - Ben Webster with Teddy Wilson
TTITLE9=So Near, So Far - Joe Henderson
TTITLE10=Desafinado - Charlie Byrd and Stan Getz
TTITLE11=Since I Fell For You - The Ramsey Lewis Trio
EXTD=YEAR: 2000
EXTT0=
EXTT1=
EXTT2=
EXTT3=
EXTT4=
EXTT5=
EXTT6=
EXTT7=
EXTT8=
EXTT9=
EXTT10=
EXTT11=
PLAYORDER=
